<?xml version="1.0" encoding="UTF-8" standalone="no"?>
<svg version="1.1" xmlns="http://www.w3.org/2000/svg" xmlns:xlink="http://www.w3.org/1999/xlink" width="887" height="331">
	<path id="dp_path001" transform="matrix(1,0,0,1,-1042.01,-620.413)" fill="#e3492f" fill-rule="evenodd" stroke="none" stroke-width="0" d="M 1154.51,679.097 C 1216.65,679.097 1267.01,729.465 1267.01,791.597 C 1267.01,853.729 1216.65,904.097 1154.51,904.097 C 1092.38,904.097 1042.01,853.729 1042.01,791.597 C 1042.01,729.465 1092.38,679.097 1154.51,679.097 Z "/>
	<path id="dp_path002" transform="matrix(1,0,0,1,15.988,266.667)" fill="white" fill-rule="evenodd" stroke="none" stroke-width="0" d="M 103.689,-195.556 L 103.689,-150.223 C 94.1107,-150.223 84.6893,-147.377 75.4667,-141.689 C 65.5333,-135.644 59.044,-128.356 56,-119.8 C 52.444,-109.689 50.6667,-101.223 50.6667,-94.4667 C 50.6667,-84.1333 53.8,-74.0667 60.044,-64.2893 C 66.5773,-53.6227 74.5773,-47.044 83.9773,-44.556 C 95.5107,-41.5107 102.089,-40 103.689,-40 L 103.689,2.66667 C 84.156,2.66667 65.844,-2.66667 48.756,-13.356 C 30.6,-24.556 18.4893,-39.044 12.4667,-56.8 C 7.11067,-72.6667 4.444,-85.644 4.444,-95.756 C 4.444,-126.889 18.3333,-153.956 46.0893,-176.933 C 61.044,-189.356 80.244,-195.556 103.689,-195.556 Z "/>
	<g id="dp_dp003" transform="matrix(1,0,0,1,253.696,226.727)">
		<path id="dp_path004" fill="#322b31" fill-rule="evenodd" stroke="none" stroke-width="0" d="M 60.7467,-117.333 L 60.7467,-102.44 C 52.1067,-102.44 44.1867,-99.8533 36.9867,-94.6667 C 29.7867,-89.4933 24.9067,-82.8 22.3467,-74.5733 C 19.8933,-66.8933 18.6667,-60.48 18.6667,-55.36 C 18.6667,-46.92 21.2,-39.08 26.2667,-31.8133 C 31.3333,-24.56 37.8667,-19.48 45.8667,-16.6 C 52.5867,-14.1467 57.5467,-12.6533 60.7467,-12.12 L 60.7467,1.33333 C 49.3333,1.33333 38.5067,-2.08 28.2667,-8.92 C 17.4933,-16.1733 10.56,-25.0933 7.46667,-35.6667 C 4.8,-44.7333 3.46667,-52 3.46667,-57.44 C 3.46667,-68.44 7.09333,-79.7467 14.3467,-91.3867 C 25.12,-108.68 40.5867,-117.333 60.7467,-117.333 Z "/>
		<path id="dp_path005" fill="#322b31" fill-rule="evenodd" stroke="none" stroke-width="0" d="M 82.2933,-39.52 C 82.2933,-32.16 84.7467,-25.7333 89.6533,-20.24 C 94.56,-14.7467 100.68,-12 108.04,-12 C 115.293,-12 121.36,-14.6933 126.267,-20.08 C 131.173,-25.4667 133.627,-31.84 133.627,-39.2 C 133.627,-51.5733 128.133,-60 117.16,-64.48 C 113.96,-65.76 110.867,-66.4 107.88,-66.4 C 103.08,-66.4 98.5733,-65.04 94.36,-62.32 C 90.16,-59.6 87.0933,-56.08 85.1733,-51.76 C 83.2533,-47.44 82.2933,-43.36 82.2933,-39.52 Z M 67.8933,-39.84 C 67.8933,-51.24 71.6533,-60.6933 79.1733,-68.2 C 86.6933,-75.7067 96.1467,-79.4667 107.56,-79.4667 C 122.493,-79.4667 133.84,-73.4533 141.627,-61.4133 C 145.893,-54.8 148.027,-47.4533 148.027,-39.36 C 148.027,-28.6 143.227,-18.2133 133.627,-8.2 C 127.773,-2.02667 119.08,1.06667 107.56,1.06667 C 96.2533,1.06667 86.8267,-2.90667 79.2533,-10.84 C 71.68,-18.7733 67.8933,-28.44 67.8933,-39.84 Z "/>
		<path id="dp_path006" fill="#322b31" fill-rule="evenodd" stroke="none" stroke-width="0" d="M 158.267,0 L 158.267,-43.2667 C 158.267,-54.1733 161.547,-62.7733 168.12,-69.08 C 174.68,-75.3867 183.453,-78.5333 194.453,-78.5333 C 205.453,-78.5333 214.253,-75.4133 220.867,-69.16 C 227.493,-62.9067 230.8,-54.28 230.8,-43.2667 L 230.8,0 L 216.933,0 L 216.933,-43.4267 C 216.933,-50.0533 214.907,-55.4533 210.84,-59.6133 C 206.773,-63.7867 201.427,-65.8667 194.787,-65.8667 C 188.053,-65.8667 182.56,-63.8133 178.333,-59.6933 C 174.107,-55.5867 172,-50.16 172,-43.4267 L 172,0 Z "/>
		<path id="dp_path007" fill="#322b31" fill-rule="evenodd" stroke="none" stroke-width="0" d="M 299.333,-75.48 L 299.333,-60.96 C 295.707,-62.8 291.707,-64.0267 287.333,-64.64 C 286.587,-64.7467 285.36,-64.8 283.653,-64.8 C 275.653,-64.8 268.933,-62.36 263.493,-57.4667 C 257.733,-52.36 254.853,-45.88 254.853,-38.0133 C 254.853,-30.68 257.413,-24.4933 262.547,-19.44 C 267.667,-14.3867 273.92,-11.8667 281.293,-11.8667 C 289.52,-11.8667 296.093,-14.8 301,-20.6667 C 305.707,-26.2133 308.053,-33.1467 308.053,-41.4533 L 308.053,-115.2 L 321.92,-115.2 L 321.92,-41.32 C 321.92,-28.3067 318.4,-18.0667 311.36,-10.6133 C 304.107,-2.82667 294.013,1.06667 281.107,1.06667 C 269.267,1.06667 259.653,-2.61333 252.293,-9.96 C 244.933,-17.3067 241.253,-26.8933 241.253,-38.72 C 241.253,-50.6533 245.067,-60.2933 252.693,-67.64 C 260.32,-74.9867 270.16,-78.6667 282.213,-78.6667 C 288.613,-78.6667 294.32,-77.6 299.333,-75.48 Z "/>
		<path id="dp_path008" fill="#322b31" fill-rule="evenodd" stroke="none" stroke-width="0" d="M 408.507,-54.5333 L 366.267,-21.28 L 358.067,-30.7733 L 390.72,-56.84 C 386.44,-62.5067 380.52,-65.3333 372.947,-65.3333 C 368.04,-65.3333 363.187,-63.8667 358.387,-60.9333 C 353.573,-57.9867 350.053,-54.3333 347.813,-49.9467 C 345.893,-46.2133 344.933,-42.2533 344.933,-38.0933 C 344.933,-30.8267 347.573,-24.5467 352.867,-19.2667 C 358.147,-13.9733 364.467,-11.3333 371.84,-11.3333 C 377.28,-11.3333 381.44,-12.2 384.333,-13.9333 C 386.68,-15.3333 389.72,-18.3067 393.453,-22.84 C 393.88,-23.28 394.413,-24.0933 395.053,-25.28 L 406.267,-18.2267 C 402.96,-12.0267 398.213,-7.21333 392.027,-3.8 C 385.84,-0.373333 379.12,1.33333 371.867,1.33333 C 357.253,1.33333 346.213,-4.21333 338.747,-15.3067 C 334.16,-22.1333 331.867,-29.76 331.867,-38.1867 C 331.867,-45.6533 333.6,-52.6133 337.067,-59.0667 C 340.533,-65.52 345.413,-70.4 351.707,-73.7067 C 358,-77.0133 364.613,-78.6667 371.547,-78.6667 C 379.867,-78.6667 387.307,-76.5333 393.867,-72.2667 C 400.427,-68.0133 405.307,-62.0933 408.507,-54.5333 Z "/>
		<path id="dp_path009" fill="#322b31" fill-rule="evenodd" stroke="none" stroke-width="0" d="M 417.68,0 L 417.68,-43.2667 C 417.68,-54.1733 420.96,-62.7733 427.533,-69.08 C 434.093,-75.3867 442.867,-78.5333 453.867,-78.5333 C 464.867,-78.5333 473.667,-75.4133 480.28,-69.16 C 486.907,-62.9067 490.213,-54.28 490.213,-43.2667 L 490.213,0 L 476.347,0 L 476.347,-43.4267 C 476.347,-50.0533 474.32,-55.4533 470.253,-59.6133 C 466.187,-63.7867 460.84,-65.8667 454.2,-65.8667 C 447.467,-65.8667 441.973,-63.8133 437.747,-59.6933 C 433.52,-55.5867 431.413,-50.16 431.413,-43.4267 L 431.413,0 Z "/>
		<path id="dp_path010" fill="#322b31" fill-rule="evenodd" stroke="none" stroke-width="0" d="M 501.733,-20.8 L 515.667,-20.32 C 515.667,-15.04 518.173,-12.4 523.187,-12.4 C 525.867,-12.4 528.133,-13.2267 530,-14.8667 C 531.867,-16.5067 532.8,-18.6533 532.8,-21.3067 C 532.8,-24.3733 531.4,-26.8667 528.6,-28.7733 L 512.92,-39.3467 C 506.44,-43.72 503.2,-49.5733 503.2,-56.9333 C 503.2,-66.84 508.107,-73.6 517.907,-77.2267 C 520.467,-78.1867 523.027,-78.6667 525.587,-78.6667 C 529.213,-78.6667 532.947,-77.5733 536.773,-75.4 C 540.613,-73.2133 543.12,-70.5333 544.293,-67.3333 C 545.787,-63.2933 546.533,-60.48 546.533,-58.88 L 533.093,-59.36 C 532.56,-63.7867 529.947,-66 525.253,-66 C 522.907,-66 520.933,-65.2267 519.333,-63.6933 C 517.733,-62.1467 516.933,-60.2 516.933,-57.8667 C 516.933,-54.8933 518.48,-52.3333 521.573,-50.2133 L 535.813,-40.64 C 542.427,-36.16 545.733,-29.88 545.733,-21.7867 C 545.733,-15.3867 543.013,-9.48 537.573,-4.04 C 534.16,-0.64 529.52,1.06667 523.653,1.06667 C 519.6,1.06667 515.707,-0.08 511.973,-2.36 C 508.24,-4.65333 505.6,-7.6 504.053,-11.2267 C 502.507,-14.84 501.733,-18.04 501.733,-20.8 Z "/>
		<path id="dp_path011" fill="#322b31" fill-rule="evenodd" stroke="none" stroke-width="0" d="M 631.227,-54.5333 L 588.987,-21.28 L 580.787,-30.7733 L 613.44,-56.84 C 609.16,-62.5067 603.24,-65.3333 595.667,-65.3333 C 590.76,-65.3333 585.907,-63.8667 581.107,-60.9333 C 576.293,-57.9867 572.773,-54.3333 570.533,-49.9467 C 568.613,-46.2133 567.653,-42.2533 567.653,-38.0933 C 567.653,-30.8267 570.293,-24.5467 575.587,-19.2667 C 580.867,-13.9733 587.187,-11.3333 594.56,-11.3333 C 600,-11.3333 604.16,-12.2 607.053,-13.9333 C 609.4,-15.3333 612.44,-18.3067 616.173,-22.84 C 616.6,-23.28 617.133,-24.0933 617.773,-25.28 L 628.987,-18.2267 C 625.68,-12.0267 620.933,-7.21333 614.747,-3.8 C 608.56,-0.373333 601.84,1.33333 594.587,1.33333 C 579.973,1.33333 568.933,-4.21333 561.467,-15.3067 C 556.88,-22.1333 554.587,-29.76 554.587,-38.1867 C 554.587,-45.6533 556.32,-52.6133 559.787,-59.0667 C 563.253,-65.52 568.133,-70.4 574.427,-73.7067 C 580.72,-77.0133 587.333,-78.6667 594.267,-78.6667 C 602.587,-78.6667 610.027,-76.5333 616.587,-72.2667 C 623.147,-68.0133 628.027,-62.0933 631.227,-54.5333 Z "/>
	</g>
</svg>