<?xml version="1.0" encoding="UTF-8" standalone="no"?>
<svg version="1.1" xmlns="http://www.w3.org/2000/svg" xmlns:xlink="http://www.w3.org/1999/xlink" width="156.553" height="156.553">
	<g id="dp_dp001" transform="matrix(1,0,0,1,-126.667,-143.333)">
		<path id="dp_path002" fill="#f8f5ef" fill-rule="evenodd" stroke="none" stroke-width="0" d="M 205.167,143.333 C 248.521,143.333 283.667,178.479 283.667,221.833 C 283.667,265.188 248.521,300.333 205.167,300.333 C 161.812,300.333 126.667,265.188 126.667,221.833 C 126.667,178.479 161.812,143.333 205.167,143.333 Z "/>
		<path id="dp_path003" fill="#d6d6d6" fill-rule="evenodd" stroke="none" stroke-width="0" d="M 214.525,193.204 C 211.023,192.453 208.396,190.452 206.395,187.451 C 205.395,185.949 204.144,184.573 202.768,183.573 C 200.267,181.823 197.64,180.321 194.888,178.945 C 186.509,174.943 177.879,173.943 168.999,176.819 C 168.873,176.819 168.623,176.944 168.499,177.069 C 167.497,177.945 167.999,179.445 169.373,179.571 C 169.499,179.571 169.624,179.571 169.749,179.571 C 173.501,179.196 177.128,179.445 180.631,181.196 C 187.009,184.573 188.509,190.201 184.508,196.205 C 183.757,197.331 183.007,198.332 182.256,199.457 C 181.756,200.208 181.756,200.959 182.007,201.709 C 182.256,202.209 182.256,202.709 181.881,203.084 C 175.752,212.089 169.624,220.971 163.496,229.851 C 163.496,229.976 163.371,229.976 163.371,230.1 C 162.369,231.352 162.495,232.977 163.496,234.103 C 164.996,235.729 166.623,237.104 168.748,237.855 C 170.249,238.356 171.125,238.231 172.251,236.729 C 178.504,227.599 184.883,218.469 191.136,209.339 C 191.387,208.963 191.761,208.713 192.261,208.713 C 192.763,208.713 193.263,208.463 193.637,208.088 C 194.764,206.963 195.889,205.836 197.14,205.211 C 198.891,204.211 201.017,203.46 202.893,203.709 C 204.144,203.835 205.269,204.836 206.395,205.836 C 207.145,206.461 208.147,206.336 208.772,205.461 L 215.651,195.705 C 216.151,194.829 215.651,193.455 214.525,193.204 Z "/>
		<path id="dp_path004" fill="#d6d6d6" fill-rule="evenodd" stroke="none" stroke-width="0" d="M 219.028,194.829 C 219.528,194.08 220.528,193.955 221.279,194.455 C 221.653,194.704 222.029,194.955 222.404,195.205 C 223.78,196.331 224.155,197.707 223.155,199.207 C 220.403,203.209 217.776,207.087 214.9,210.964 C 213.524,212.84 212.148,212.715 209.772,210.839 C 209.147,210.339 209.021,209.339 209.521,208.713 Z "/>
		<path id="dp_path005" fill="#d6d6d6" fill-rule="evenodd" stroke="none" stroke-width="0" d="M 248.295,240.607 L 226.781,240.607 C 225.031,240.607 223.655,239.231 223.655,237.48 L 223.655,227.975 C 223.655,226.223 225.031,224.848 226.781,224.848 L 248.295,224.848 C 250.045,224.848 251.421,226.223 251.421,227.975 L 251.421,237.48 C 251.421,239.231 250.045,240.607 248.295,240.607 Z "/>
		<path id="dp_path006" fill="#d6d6d6" fill-rule="evenodd" stroke="none" stroke-width="0" d="M 213.775,240.607 L 192.261,240.607 C 190.511,240.607 189.136,239.231 189.136,237.48 L 189.136,227.975 C 189.136,226.223 190.511,224.848 192.261,224.848 L 213.775,224.848 C 215.525,224.848 216.901,226.223 216.901,227.975 L 216.901,237.48 C 216.901,239.231 215.525,240.607 213.775,240.607 Z "/>
		<path id="dp_path007" fill="#d6d6d6" fill-rule="evenodd" stroke="none" stroke-width="0" d="M 229.033,263.245 L 207.521,263.245 C 205.769,263.245 204.395,261.869 204.395,260.119 L 204.395,250.612 C 204.395,248.861 205.769,247.485 207.521,247.485 L 229.033,247.485 C 230.784,247.485 232.16,248.861 232.16,250.612 L 232.16,260.119 C 232.16,261.869 230.784,263.245 229.033,263.245 Z "/>
		<path id="dp_path008" fill="#d6d6d6" fill-rule="evenodd" stroke="none" stroke-width="0" d="M 195.889,263.245 L 174.377,263.245 C 172.625,263.245 171.249,261.869 171.249,260.119 L 171.249,250.612 C 171.249,248.861 172.625,247.485 174.377,247.485 L 195.889,247.485 C 197.64,247.485 199.016,248.861 199.016,250.612 L 199.016,260.119 C 199.016,261.869 197.64,263.245 195.889,263.245 Z "/>
	</g>
</svg>